<svg xmlns="http://www.w3.org/2000/svg" width="240" height="240" viewBox="0 0 240 240"><g opacity=".8"><g transform="translate(40 40) rotate(0)"><ellipse cx="0" cy="-12.4" rx="8.4" ry="12.0" transform="rotate(0)" fill="#FFFFFF"/><ellipse cx="0" cy="-12.4" rx="8.4" ry="12.0" transform="rotate(72)" fill="#FFFFFF"/><ellipse cx="0" cy="-12.4" rx="8.4" ry="12.0" transform="rotate(144)" fill="#FFFFFF"/><ellipse cx="0" cy="-12.4" rx="8.4" ry="12.0" transform="rotate(216)" fill="#FFFFFF"/><ellipse cx="0" cy="-12.4" rx="8.4" ry="12.0" transform="rotate(288)" fill="#FFFFFF"/><circle r="6.0" fill="#FFC53D"/></g><g transform="translate(160 30) rotate(20)"><ellipse cx="0" cy="-8.7" rx="5.9" ry="8.4" transform="rotate(0)" fill="#FFFFFF"/><ellipse cx="0" cy="-8.7" rx="5.9" ry="8.4" transform="rotate(72)" fill="#FFFFFF"/><ellipse cx="0" cy="-8.7" rx="5.9" ry="8.4" transform="rotate(144)" fill="#FFFFFF"/><ellipse cx="0" cy="-8.7" rx="5.9" ry="8.4" transform="rotate(216)" fill="#FFFFFF"/><ellipse cx="0" cy="-8.7" rx="5.9" ry="8.4" transform="rotate(288)" fill="#FFFFFF"/><circle r="4.2" fill="#F48FB1"/></g><g transform="translate(105 115) rotate(40)"><ellipse cx="0" cy="-10.5" rx="7.1" ry="10.2" transform="rotate(0)" fill="#FFFFFF"/><ellipse cx="0" cy="-10.5" rx="7.1" ry="10.2" transform="rotate(72)" fill="#FFFFFF"/><ellipse cx="0" cy="-10.5" rx="7.1" ry="10.2" transform="rotate(144)" fill="#FFFFFF"/><ellipse cx="0" cy="-10.5" rx="7.1" ry="10.2" transform="rotate(216)" fill="#FFFFFF"/><ellipse cx="0" cy="-10.5" rx="7.1" ry="10.2" transform="rotate(288)" fill="#FFFFFF"/><circle r="5.1" fill="#FFC53D"/></g><g transform="translate(210 140) rotate(10)"><ellipse cx="0" cy="-13.0" rx="8.8" ry="12.6" transform="rotate(0)" fill="#FFFFFF"/><ellipse cx="0" cy="-13.0" rx="8.8" ry="12.6" transform="rotate(72)" fill="#FFFFFF"/><ellipse cx="0" cy="-13.0" rx="8.8" ry="12.6" transform="rotate(144)" fill="#FFFFFF"/><ellipse cx="0" cy="-13.0" rx="8.8" ry="12.6" transform="rotate(216)" fill="#FFFFFF"/><ellipse cx="0" cy="-13.0" rx="8.8" ry="12.6" transform="rotate(288)" fill="#FFFFFF"/><circle r="6.3" fill="#F48FB1"/></g><g transform="translate(45 185) rotate(30)"><ellipse cx="0" cy="-9.3" rx="6.3" ry="9.0" transform="rotate(0)" fill="#FFFFFF"/><ellipse cx="0" cy="-9.3" rx="6.3" ry="9.0" transform="rotate(72)" fill="#FFFFFF"/><ellipse cx="0" cy="-9.3" rx="6.3" ry="9.0" transform="rotate(144)" fill="#FFFFFF"/><ellipse cx="0" cy="-9.3" rx="6.3" ry="9.0" transform="rotate(216)" fill="#FFFFFF"/><ellipse cx="0" cy="-9.3" rx="6.3" ry="9.0" transform="rotate(288)" fill="#FFFFFF"/><circle r="4.5" fill="#FFC53D"/></g><g transform="translate(150 210) rotate(0)"><ellipse cx="0" cy="-8.1" rx="5.5" ry="7.8" transform="rotate(0)" fill="#FFFFFF"/><ellipse cx="0" cy="-8.1" rx="5.5" ry="7.8" transform="rotate(72)" fill="#FFFFFF"/><ellipse cx="0" cy="-8.1" rx="5.5" ry="7.8" transform="rotate(144)" fill="#FFFFFF"/><ellipse cx="0" cy="-8.1" rx="5.5" ry="7.8" transform="rotate(216)" fill="#FFFFFF"/><ellipse cx="0" cy="-8.1" rx="5.5" ry="7.8" transform="rotate(288)" fill="#FFFFFF"/><circle r="3.9" fill="#FFC53D"/></g></g><g fill="#FFFFFF" opacity=".7"><circle cx="100" cy="45" r="4"/><circle cx="215" cy="75" r="3.5"/><circle cx="20" cy="110" r="3"/><circle cx="100" cy="185" r="3.5"/><circle cx="215" cy="215" r="3"/></g></svg>