<svg xmlns="http://www.w3.org/2000/svg" width="540" height="500" viewBox="0 0 540 500"><path d="M0 40 Q135 110 270 40 T540 40" fill="none" stroke="#FBF1E1" stroke-width="3" opacity=".35"/><g transform="translate(45 59.4) rotate(-14)" opacity=".55"><ellipse cx="0" cy="26" rx="24" ry="30" fill="#FFC53D" opacity=".35"/><rect x="-6" y="0" width="12" height="11" rx="2" fill="#FBF1E1"/><path d="M0 10 C13 13 15 30 10 40 C6 47 -6 47 -10 40 C-15 30 -13 13 0 10Z" fill="#FFC53D"/><path d="M-4 20 Q-6 28 -3 34" stroke="#FFFFFF" stroke-width="2.5" fill="none" stroke-linecap="round" opacity=".7"/></g><g transform="translate(135 75.0) rotate(6)" opacity=".55"><ellipse cx="0" cy="26" rx="24" ry="30" fill="#D3253C" opacity=".35"/><rect x="-6" y="0" width="12" height="11" rx="2" fill="#FBF1E1"/><path d="M0 10 C13 13 15 30 10 40 C6 47 -6 47 -10 40 C-15 30 -13 13 0 10Z" fill="#D3253C"/><path d="M-4 20 Q-6 28 -3 34" stroke="#FFFFFF" stroke-width="2.5" fill="none" stroke-linecap="round" opacity=".7"/></g><g transform="translate(225 59.4) rotate(14)" opacity=".55"><ellipse cx="0" cy="26" rx="24" ry="30" fill="#12A5A0" opacity=".35"/><rect x="-6" y="0" width="12" height="11" rx="2" fill="#FBF1E1"/><path d="M0 10 C13 13 15 30 10 40 C6 47 -6 47 -10 40 C-15 30 -13 13 0 10Z" fill="#12A5A0"/><path d="M-4 20 Q-6 28 -3 34" stroke="#FFFFFF" stroke-width="2.5" fill="none" stroke-linecap="round" opacity=".7"/></g><g transform="translate(315 20.6) rotate(-10)" opacity=".55"><ellipse cx="0" cy="26" rx="24" ry="30" fill="#F48FB1" opacity=".35"/><rect x="-6" y="0" width="12" height="11" rx="2" fill="#FBF1E1"/><path d="M0 10 C13 13 15 30 10 40 C6 47 -6 47 -10 40 C-15 30 -13 13 0 10Z" fill="#F48FB1"/><path d="M-4 20 Q-6 28 -3 34" stroke="#FFFFFF" stroke-width="2.5" fill="none" stroke-linecap="round" opacity=".7"/></g><g transform="translate(405 5.0) rotate(8)" opacity=".55"><ellipse cx="0" cy="26" rx="24" ry="30" fill="#CDB9F2" opacity=".35"/><rect x="-6" y="0" width="12" height="11" rx="2" fill="#FBF1E1"/><path d="M0 10 C13 13 15 30 10 40 C6 47 -6 47 -10 40 C-15 30 -13 13 0 10Z" fill="#CDB9F2"/><path d="M-4 20 Q-6 28 -3 34" stroke="#FFFFFF" stroke-width="2.5" fill="none" stroke-linecap="round" opacity=".7"/></g><g transform="translate(495 20.6) rotate(-6)" opacity=".55"><ellipse cx="0" cy="26" rx="24" ry="30" fill="#F2711C" opacity=".35"/><rect x="-6" y="0" width="12" height="11" rx="2" fill="#FBF1E1"/><path d="M0 10 C13 13 15 30 10 40 C6 47 -6 47 -10 40 C-15 30 -13 13 0 10Z" fill="#F2711C"/><path d="M-4 20 Q-6 28 -3 34" stroke="#FFFFFF" stroke-width="2.5" fill="none" stroke-linecap="round" opacity=".7"/></g><g fill="#FBF1E1" stroke="#FBF1E1" stroke-width="2" stroke-linejoin="round" opacity=".28"><path d="M68.4,231.1 L71.9,236.1 L77.9,235.8 L74.3,240.6 L76.5,246.3 L70.8,244.3 L66.1,248.1 L66.2,242.0 L61.1,238.7 L66.9,237.0Z"/><path d="M331.5,208.2 L332.5,212.8 L337.0,214.3 L332.9,216.7 L332.8,221.4 L329.3,218.3 L324.8,219.7 L326.7,215.4 L323.9,211.5 L328.6,211.9Z"/><path d="M200.9,320.0 L203.1,326.4 L209.7,327.8 L204.4,331.9 L205.2,338.6 L199.6,334.8 L193.4,337.5 L195.3,331.1 L190.8,326.1 L197.5,325.9Z"/><path d="M458.1,292.2 L461.4,296.4 L466.8,295.8 L463.8,300.3 L466.1,305.1 L460.9,303.7 L457.0,307.4 L456.7,302.0 L452.0,299.4 L457.1,297.5Z"/><path d="M111.0,423.1 L112.3,427.6 L116.9,428.8 L113.0,431.5 L113.3,436.2 L109.5,433.3 L105.1,435.0 L106.7,430.6 L103.7,426.9 L108.4,427.0Z"/><path d="M389.4,431.0 L392.3,436.3 L398.3,436.6 L394.2,441.0 L395.8,446.9 L390.3,444.3 L385.2,447.6 L386.0,441.6 L381.3,437.8 L387.2,436.7Z"/></g><g fill="#FBF1E1" opacity=".25"><circle cx="260" cy="250" r="3"/><circle cx="20" cy="340" r="3"/><circle cx="520" cy="380" r="3"/><circle cx="280" cy="460" r="3"/></g></svg>